<svg viewBox="0 0 22.1 22.1" xmlns="http://www.w3.org/2000/svg"><path d="m10.5 12.3-7-7.1c-.2-.2-.3-.4-.3-.7s.1-.5.3-.7.4-.3.7-.3.5.1.7.3l7.1 7.1-1.4 1.4zm2.5-2.5-6.4-6.3c-.2-.2-.3-.4-.3-.7s.1-.5.3-.7.4-.3.7-.3.5.1.7.3l6.4 6.4-1.4 1.4zm4.8 8c-1.5 1.5-3.3 2.3-5.5 2.3s-4-.8-5.5-2.3l-3-3 1.5-1.5c.1-.1.2-.2.4-.3s.3-.2.4-.3l-3.7-3.7c-.2-.2-.3-.4-.3-.7s.1-.5.3-.7.4-.3.7-.3.5.1.7.3l4.3 4.3 2.1 2.1.5-.5c.8-.8 1.7-1.1 2.8-1.1s2 .4 2.8 1.2l-1.4 1.4c-.4-.4-.8-.6-1.4-.6s-1 .1-1.4.5l-1.2 1.2c-.2.2-.4.3-.7.3s-.5-.1-.7-.3l-1.4-1.4c-.2-.2-.4-.3-.7-.3s-.5.1-.7.3l1.6 1.6c1.1 1.1 2.5 1.7 4.1 1.7s2.9-.6 4.1-1.7c1.1-1.1 1.7-2.5 1.7-4.1s-.6-2.9-1.7-4.1l-6-6c-.2-.2-.3-.4-.3-.7s.1-.5.3-.7.4-.3.7-.3.5.1.7.3l6 6c1.5 1.5 2.3 3.3 2.3 5.5s-.8 4-2.3 5.5zm4.3-11.8h-2c0-1.1-.4-2-1.2-2.8s-1.7-1.2-2.8-1.2v-2c1.7 0 3.1.6 4.3 1.8s1.8 2.6 1.8 4.3zm-16.1 16.1c-1.7 0-3.1-.6-4.3-1.8s-1.8-2.6-1.8-4.3h2c0 1.1.4 2 1.2 2.8s1.7 1.2 2.8 1.2v2z"/></svg>
